<?xml version="1.0" encoding="utf-8"?>
<!-- Generator: Adobe Illustrator 21.0.0, SVG Export Plug-In . SVG Version: 6.00 Build 0)  -->
<svg version="1.1" id="Layer_1" xmlns="http://www.w3.org/2000/svg" xmlns:xlink="http://www.w3.org/1999/xlink" x="0px" y="0px"
	 viewBox="0 0 216 80.5" style="enable-background:new 0 0 216 80.5;" xml:space="preserve">
<style type="text/css">
	.st0{fill:#0B4874;}
	.st1{fill:#0184AE;}
	.st2{fill:#66ABC9;}
	.st3{fill:#85BDD3;}
	.st4{fill:#A4CEDF;}
	.st5{fill:#BEDCE8;}
	.st6{fill:#D5E8EF;}
</style>
<g>
	<g>
		<path class="st0" d="M173.7,24.9l-9,24.3h18.1L173.7,24.9z M216,80.5h-21.6L189,65.9h-30.5L153,80.5h-21.6l29.4-79.4h25.8
			L216,80.5z M106.4,38.4v15.9c19.5,0,35.7-8.7,35.7-27.5C142.1,8,125,2.3,116,1.1c-9.1-1.2-21.5-1.7-34.4,0v79.4h21.8v-20V16.3
			c2.7-0.2,17.5-0.1,17.5,11C120.9,38.6,107.7,38.4,106.4,38.4 M76.2,1.1H48.8L25,35.3V44l23.8,36.5h28.6L45.8,39.4L76.2,1.1z
			 M0,1.1h21.8v79.4H0V1.1z"/>
	</g>
	
		<rect x="55.1" y="36.6" transform="matrix(0.7071 -0.7071 0.7071 0.7071 -10.8773 52.4609)" class="st1" width="5.6" height="5.6"/>
	<rect x="59" y="32.6" transform="matrix(0.7071 -0.7071 0.7071 0.7071 -6.9316 54.0954)" class="st2" width="5.6" height="5.6"/>
	<rect x="63" y="28.7" transform="matrix(0.7071 -0.7071 0.7071 0.7071 -2.9865 55.7295)" class="st3" width="5.6" height="5.6"/>
	<rect x="59" y="40.5" transform="matrix(0.7071 -0.7071 0.7071 0.7071 -12.5115 56.4061)" class="st2" width="5.6" height="5.6"/>
	<rect x="63" y="36.6" transform="matrix(0.7071 -0.7071 0.7071 0.7071 -8.5658 58.0404)" class="st4" width="5.6" height="5.6"/>
	<rect x="66.9" y="32.6" transform="matrix(0.7071 -0.7071 0.7071 0.7071 -4.6206 59.6747)" class="st5" width="5.6" height="5.6"/>
	<rect x="63" y="44.5" transform="matrix(0.7071 -0.7071 0.7071 0.7071 -14.1459 60.3515)" class="st3" width="5.6" height="5.6"/>
	<rect x="66.9" y="40.5" transform="matrix(0.7071 -0.7071 0.7071 0.7071 -10.2001 61.986)" class="st5" width="5.6" height="5.6"/>
	<rect x="70.9" y="36.6" transform="matrix(0.7071 -0.7071 0.7071 0.7071 -6.2549 63.6201)" class="st6" width="5.6" height="5.6"/>
</g>
</svg>
